<svg height="306" width="306" xmlns="http://www.w3.org/2000/svg"><g fill="#e53935"><path d="m295.329 6.688c-4.174-4.178-9.713-6.688-15.597-6.688h-253.463c-5.885 0-11.424 2.51-15.598 6.688-4.173 4.178-6.468 9.823-6.462 15.706l.228 261.363c.013 12.164 9.919 22.243 22.084 22.243h252.958c12.165 0 22.071-10.027 22.082-22.192l.229-261.346c.007-5.886-2.288-11.596-6.461-15.774zm-27.291 264.241c0 1.144-.927 2.071-2.071 2.071h-226.858c-1.144 0-2.071-.927-2.071-2.071v-185.858c0-1.144.927-2.071 2.071-2.071h226.857c1.144 0 2.071.927 2.071 2.071v185.858z"/><path d="m206.25524 153.86309c-1.09636-2.19299-3.33718-3.57803-5.7891-3.57803h-32.67733l16.89143-33.7837c1.00374-2.00609.89583-4.38931-.28313-6.29751-1.17979-1.90791-3.2632-3.06963-5.50653-3.06963h-38.83606c-2.45192 0-4.69274 1.38505-5.7891 3.57803l-34.52072 69.04144c-1.00291 2.00609-.89583 4.38931.28313 6.29751 1.17979 1.90847 3.26292 3.06963 5.50597 3.06963h35.14427l-11.26698 52.58221c-.63745 2.97228.87998 5.98712 3.64617 7.24673.8644.39299 1.77692.58266 2.6797.58266 1.98801 0 3.9268-.91752 5.18057-2.58959l64.72639-86.30167c1.47071-1.96103 1.70767-4.58567.61131-6.7781z"/></g></svg>